<?xml version="1.0" encoding="UTF-8"?>
<!DOCTYPE svg PUBLIC "-//W3C//DTD SVG 1.1//EN" "http://www.w3.org/Graphics/SVG/1.1/DTD/svg11.dtd">
<!-- Creator: CorelDRAW X7 -->
<svg xmlns="http://www.w3.org/2000/svg" xml:space="preserve" width="3543px" height="2953px" version="1.1" shape-rendering="geometricPrecision" text-rendering="geometricPrecision" image-rendering="optimizeQuality" fill-rule="evenodd" clip-rule="evenodd"
viewBox="0 0 35430 29525"
 xmlns:xlink="http://www.w3.org/1999/xlink">
 <g>
  <metadata id="CorelCorpID_0Corel-Layer"/>
  <g id="_1771932560416">
   <g id="_2253338297200">
    <path fill="none" stroke="black" stroke-width="88.575" d="M12414 24480c-1231,0 -1517,46 -1742,106 -225,60 -406,150 -1276,676 -856,525 -2403,1471 -3289,1982 -871,510 -1096,586 -1322,645 -225,45 -465,76 -735,45 -271,-30 -556,-104 -916,-270 -361,-165 -797,-435 -1157,-780 -345,-346 -630,-767 -841,-1232 -210,-481 -345,-1021 -420,-1547 -60,-526 -60,-1066 -15,-1682 45,-616 150,-1306 450,-2522 301,-1202 796,-2914 1277,-4431 496,-1516 976,-2838 1261,-3619 301,-781 391,-1021 526,-1216 135,-196 300,-345 661,-495 360,-166 901,-331 1546,-496 631,-180 1367,-361 1997,-496 646,-135 1172,-240 1607,-285 436,-45 781,-30 1052,15 285,30 480,90 691,165 195,75 405,166 600,210 210,45 405,45 1367,45 2657,0 5301,0 7959,0 961,0 1156,0 1366,-45 196,-44 406,-135 601,-210 210,-75 405,-135 691,-165 270,-45 615,-60 1051,-15 435,45 961,150 1607,285 631,135 1366,316 1997,496 646,165 1186,330 1547,496 360,150 525,299 661,495 134,195 225,435 525,1216 285,781 766,2103 1262,3619 480,1517 976,3229 1276,4431 300,1216 405,1906 450,2522 45,616 45,1156 -15,1682 -74,526 -210,1066 -420,1547 -210,465 -496,886 -841,1232 -360,345 -796,615 -1156,780 -360,166 -646,240 -916,270 -271,31 -511,0 -736,-45 -226,-59 -451,-135 -1322,-645 -886,-511 -2432,-1457 -3288,-1982 -871,-526 -1052,-616 -1277,-676 -225,-60 -510,-106 -1742,-106 -3514,-44 -7088,-44 -10602,0l0 0 0 0z"/>
    <path fill="none" stroke="black" stroke-width="88.575" d="M13751 9283c-286,0 -481,0 -616,0 -90,15 -225,15 -330,15 -196,-15 -316,-15 -526,-74 -195,-61 -466,-166 -721,-241 -255,-75 -480,-120 -720,-135 -241,-30 -466,-30 -1007,45 -525,75 -1351,240 -2147,435 -796,181 -1532,391 -1998,526 -450,135 -630,195 -690,210 -60,15 -30,-15 75,-210 105,-210 270,-601 375,-826 120,-210 196,-270 526,-450 346,-166 931,-451 1532,-661 585,-225 1156,-391 1666,-510 496,-106 916,-166 1217,-181 300,-15 466,15 631,60 149,60 285,135 450,240 165,106 375,225 511,316 150,90 255,135 435,165 60,15 135,15 211,30 60,-15 255,-15 901,0 2793,15 5601,15 8394,0 901,-15 931,-15 931,0 0,0 0,0 15,0 90,-15 180,-15 255,-30 105,-30 196,-75 346,-165 150,-91 345,-210 511,-316 164,-105 300,-180 465,-240 150,-45 315,-75 616,-60 300,15 721,75 1231,181 495,119 1066,285 1667,510 586,210 1186,495 1517,661 330,180 405,240 525,450 121,225 286,616 376,826 105,195 135,225 74,210 -59,-15 -225,-75 -690,-210 -451,-135 -1201,-345 -1997,-526 -781,-195 -1622,-360 -2148,-435 -540,-75 -766,-75 -1006,-45 -225,15 -466,60 -721,135 -240,75 -525,180 -721,241 -195,59 -330,59 -510,74 -90,0 -195,0 -285,-15 -121,0 -331,0 -661,0 -2658,15 -5317,15 -7959,0l0 0 0 0z"/>
    <path fill="none" stroke="black" stroke-width="88.575" d="M6077 8337c120,-255 405,-766 555,-1051 151,-300 166,-375 241,-481 60,-104 165,-255 240,-360 75,-105 135,-180 210,-240 76,-60 151,-90 346,-150 180,-45 466,-136 661,-181 180,-29 270,-44 345,-44 90,0 150,0 210,15 60,15 105,29 151,59 29,30 59,76 104,136 45,60 91,165 151,315 59,135 135,346 195,511 60,165 105,315 120,390 30,60 30,60 15,75 0,0 -15,0 -150,15 -136,30 -376,75 -631,135 -240,60 -495,136 -781,225 -270,91 -585,196 -871,316 -285,120 -526,225 -721,315 -195,90 -330,166 -405,196 -90,45 -105,60 15,-196l0 0 0 0z"/>
    <path fill="none" stroke="black" stroke-width="88.575" d="M29368 8337c-120,-255 -390,-766 -540,-1051 -150,-300 -181,-375 -241,-481 -74,-104 -180,-255 -255,-360 -75,-105 -135,-180 -210,-240 -75,-60 -150,-90 -345,-150 -180,-45 -466,-136 -646,-181 -195,-29 -286,-44 -361,-44 -74,0 -150,0 -210,15 -60,15 -105,29 -135,59 -45,30 -75,76 -120,136 -30,60 -90,165 -150,315 -60,135 -135,346 -180,511 -61,165 -121,315 -136,390 -14,60 -14,60 -14,75 14,0 14,0 150,15 134,30 375,75 630,135 240,60 496,136 781,225 285,91 586,196 871,316 286,120 541,225 721,315 195,90 330,166 405,196 91,45 120,60 -15,-196l0 0 0 0z"/>
    <path fill="none" stroke="black" stroke-width="88.575" d="M12714 8037c60,30 106,45 151,75 45,45 90,90 135,196 30,89 75,255 90,420 15,180 0,375 0,570"/>
    <path fill="none" stroke="black" stroke-width="88.575" d="M22460 8037c-59,30 -104,45 -150,75 -45,45 -90,90 -134,196 -31,89 -76,255 -91,420 -15,180 0,375 0,570"/>
   </g>
   <path fill="none" stroke="black" stroke-width="88.575" d="M12474 17768l1201 0c211,0 391,180 391,405l0 1202 1201 0c225,0 406,180 406,390l0 1202c0,225 -181,405 -406,405l-1201 0 0 1202c0,210 -180,390 -391,390l-1201 0c-225,0 -406,-180 -406,-390l0 -1202 -1200 0c-211,0 -391,-180 -391,-405l0 -1202c0,-210 180,-390 391,-390l1200 0 0 -1202c0,-225 181,-405 406,-405z"/>
   <circle fill="none" stroke="black" stroke-width="88.575" cx="8330" cy="14885" r="2388"/>
   <circle fill="none" stroke="black" stroke-width="88.575" cx="8269" cy="15110" r="1952"/>
   <circle fill="none" stroke="black" stroke-width="88.575" cx="22416" cy="20246" r="2388"/>
   <circle fill="none" stroke="black" stroke-width="88.575" cx="22356" cy="20471" r="1952"/>
   <g id="_2253338296464">
    <circle fill="none" stroke="black" stroke-width="88.575" cx="17205" cy="15516" r="345"/>
    <path fill="none" stroke="black" stroke-width="88.575" d="M16979 15440l139 -140c39,-38 101,-38 139,0l140 140c38,38 38,100 0,139l-140 139c-38,38 -100,38 -139,0l-139 -139c-38,-39 -38,-101 0,-139z"/>
   </g>
   <g id="_2253338295120">
    <circle fill="none" stroke="black" stroke-width="88.575" cx="18015" cy="15516" r="345"/>
    <path fill="none" stroke="black" stroke-width="88.575" d="M17797 15440l139 -140c39,-38 101,-38 139,0l140 140c38,38 38,100 0,139l-140 139c-38,38 -100,38 -139,0l-139 -139c-39,-39 -39,-101 0,-139z"/>
   </g>
   <g id="_2253338293328">
    <circle fill="none" stroke="black" stroke-width="88.575" cx="17205" cy="16296" r="345"/>
    <path fill="none" stroke="black" stroke-width="88.575" d="M16979 16225l139 -140c39,-38 101,-38 139,0l140 140c38,38 38,100 0,138l-140 140c-38,38 -100,38 -139,0l-139 -140c-38,-38 -38,-100 0,-138z"/>
   </g>
   <g id="_2253338293584">
    <circle fill="none" stroke="black" stroke-width="88.575" cx="18015" cy="16296" r="345"/>
    <path fill="none" stroke="black" stroke-width="88.575" d="M17797 16225l139 -140c39,-38 101,-38 139,0l140 140c38,38 38,100 0,138l-140 140c-38,38 -100,38 -139,0l-139 -140c-39,-38 -39,-100 0,-138z"/>
   </g>
   <circle fill="none" stroke="black" stroke-width="88.575" cx="14982" cy="14885" r="856"/>
   <rect fill="none" stroke="black" stroke-width="88.575" x="14847" y="14885" width="602" height="410"/>
   <polyline fill="none" stroke="black" stroke-width="88.575" points="14712,14960 14487,14960 14487,14554 15102,14554 15102,14719 "/>
   <circle fill="none" stroke="black" stroke-width="88.575" cx="20163" cy="14885" r="856"/>
   <line fill="none" stroke="black" stroke-width="88.575" x1="19727" y1="14690" x2="20584" y2= "14690" />
   <line fill="none" stroke="black" stroke-width="88.575" x1="19727" y1="14960" x2="20584" y2= "14960" />
   <line fill="none" stroke="black" stroke-width="88.575" x1="19727" y1="15200" x2="20584" y2= "15200" />
   <circle fill="none" stroke="black" stroke-width="88.575" cx="17580" cy="11175" r="1427"/>
   <path fill="none" stroke="black" stroke-width="88.575" d="M18571 12197c75,-60 120,-105 135,-151 -180,-645 -420,-1126 -736,-1471 210,-136 421,-255 661,-346 -75,-75 -150,-165 -225,-195 -300,0 -571,76 -826,225 -240,-149 -526,-225 -826,-225 -60,30 -150,120 -210,195 225,91 436,210 646,346 -301,345 -556,826 -736,1471 30,46 75,91 135,151 270,-511 601,-961 991,-1307 390,346 721,796 991,1307l0 0z"/>
   <ellipse fill="none" stroke="black" stroke-width="88.575" cx="14817" cy="8352" rx="615" ry="210"/>
   <circle fill="none" stroke="black" stroke-width="88.575" cx="8209" cy="15200" r="1772"/>
   <circle fill="none" stroke="black" stroke-width="88.575" cx="22386" cy="20546" r="1772"/>
   <circle fill="none" stroke="black" stroke-width="88.575" cx="8120" cy="15275" r="1126"/>
   <circle fill="none" stroke="black" stroke-width="88.575" cx="22431" cy="20636" r="1126"/>
   <circle fill="none" stroke="black" stroke-width="88.575" cx="25059" cy="15155" r="1217"/>
   <circle fill="none" stroke="black" stroke-width="88.575" cx="27521" cy="12797" r="1217"/>
   <circle fill="none" stroke="black" stroke-width="88.575" cx="27431" cy="17333" r="1217"/>
   <circle fill="none" stroke="black" stroke-width="88.575" cx="29909" cy="14975" r="1217"/>
   <path fill="black" fill-rule="nonzero" stroke="black" stroke-width="88.575" d="M24428 15816l510 -676 -450 -631 210 0 240 346c45,60 75,120 105,150 31,-45 61,-90 91,-135l270 -361 195 0 -465 631 495 676 -210 0 -330 -466c-30,-14 -46,-45 -61,-75 -30,45 -45,75 -60,90l-330 451 -210 0 0 0z"/>
   <path id="_1" fill="none" fill-rule="nonzero" stroke="black" stroke-width="88.575" d="M24428 15816l510 -676 -450 -631 210 0 240 346c45,60 75,120 105,150 31,-45 61,-90 91,-135l270 -361 195 0 -465 631 495 676 -210 0 -330 -466c-30,-14 -46,-45 -61,-75 -30,45 -45,75 -60,90l-330 451 -210 0z"/>
   <path fill="black" fill-rule="nonzero" stroke="black" stroke-width="88.575" d="M27446 13533l0 -556 -510 -750 210 0 255 405c45,75 90,135 135,211 46,-61 91,-136 150,-226l256 -390 195 0 -525 750 0 556 -166 0 0 0 0 0z"/>
   <path id="_1_0" fill="none" fill-rule="nonzero" stroke="black" stroke-width="88.575" d="M27446 13533l0 -556 -510 -750 210 0 255 405c45,75 90,135 135,211 46,-61 91,-136 150,-226l256 -390 195 0 -525 750 0 556 -166 0 0 0 0 0z"/>
   <path fill="black" fill-rule="nonzero" stroke="black" stroke-width="88.575" d="M29503 15635l0 -1306 496 0c90,0 180,15 240,30 61,30 106,76 136,120 29,60 44,120 44,181 0,59 -15,104 -44,150 -30,60 -75,90 -136,120 91,30 151,75 180,120 46,60 76,120 76,195 0,75 -15,120 -46,180 -30,45 -59,91 -89,121 -45,30 -91,45 -151,60 -60,15 -120,29 -210,29l-496 0 0 0 0 0zm166 -765l285 0c75,0 135,0 165,-15 45,-15 75,-30 105,-60 15,-31 30,-76 30,-120 0,-45 -15,-76 -30,-106 -15,-45 -45,-60 -90,-75 -29,-15 -105,-15 -195,-15l-270 0 0 391 0 0zm0 615l330 0c60,0 90,-15 120,-15 45,0 75,-15 105,-30 15,-15 45,-45 61,-75 15,-29 30,-75 30,-105 0,-60 -15,-105 -46,-135 -15,-30 -60,-60 -105,-75 -45,-15 -105,-30 -180,-30l-315 0 0 465 0 0 0 0z"/>
   <path id="_1_1" fill="none" fill-rule="nonzero" stroke="black" stroke-width="88.575" d="M29503 15635l0 -1306 496 0c90,0 180,15 240,30 61,30 106,76 136,120 29,60 44,120 44,181 0,59 -15,104 -44,150 -30,60 -75,90 -136,120 91,30 151,75 180,120 46,60 76,120 76,195 0,75 -15,120 -46,180 -30,45 -59,91 -89,121 -45,30 -91,45 -151,60 -60,15 -120,29 -210,29l-496 0 0 0 0 0zm166 -765l285 0c75,0 135,0 165,-15 45,-15 75,-30 105,-60 15,-31 30,-76 30,-120 0,-45 -15,-76 -30,-106 -15,-45 -45,-60 -90,-75 -29,-15 -105,-15 -195,-15l-270 0 0 391 0 0zm0 615l330 0c60,0 90,-15 120,-15 45,0 75,-15 105,-30 15,-15 45,-45 61,-75 15,-29 30,-75 30,-105 0,-60 -15,-105 -46,-135 -15,-30 -60,-60 -105,-75 -45,-15 -105,-30 -180,-30l-315 0 0 465 0 0 0 0z"/>
   <path fill="black" fill-rule="nonzero" stroke="black" stroke-width="88.575" d="M26815 17948l496 -1306 195 0 541 1306 -195 0 -166 -390 -540 0 -150 390 -181 0 0 0zm376 -525l451 0 -136 -376c-45,-105 -75,-195 -105,-270 -15,90 -30,165 -60,255l-150 391z"/>
   <path id="_1_2" fill="none" fill-rule="nonzero" stroke="black" stroke-width="88.575" d="M26815 17948l496 -1306 195 0 541 1306 -195 0 -166 -390 -540 0 -150 390 -181 0 0 0zm376 -525l451 0 -136 -376c-45,-105 -75,-195 -105,-270 -15,90 -30,165 -60,255l-150 391z"/>
   <path fill="none" fill-rule="nonzero" stroke="black" stroke-width="88.575" d="M3990 11100c30,15 60,15 120,15 75,0 180,0 826,-180 630,-180 1817,-525 2627,-736 812,-225 1247,-330 1622,-390 361,-75 661,-105 917,-105 255,15 465,45 645,120 195,75 361,195 841,676 496,480 1322,1351 1802,1832 496,496 646,615 811,721 150,90 330,165 916,195 1667,135 3559,135 5226,0 601,-30 766,-105 916,-195 165,-106 315,-225 811,-721 481,-481 1306,-1352 1802,-1832 496,-481 646,-601 841,-676 181,-75 406,-105 646,-120 255,0 555,30 931,105 360,60 796,165 1607,390 811,211 1997,556 2643,736 630,180 736,180 810,180 61,0 91,0 136,-15"/>
  </g>
  <polygon fill="#F47721" points="8109,6706 8384,5996 8658,5310 8222,5310 8222,3336 7971,3336 7971,5310 7537,5310 7811,5996 "/>
  <path fill="black" fill-rule="nonzero" d="M1700 2442l0 183 -690 0c8,-70 30,-135 67,-197 38,-62 112,-144 222,-247 88,-83 143,-139 163,-168 27,-41 40,-81 40,-121 0,-44 -11,-78 -35,-102 -23,-23 -56,-35 -97,-35 -41,0 -74,12 -98,37 -25,25 -38,66 -42,124l-197 -20c12,-109 48,-187 110,-234 62,-47 139,-71 231,-71 102,0 182,28 240,83 58,54 86,123 86,204 0,47 -8,91 -24,133 -17,42 -43,85 -79,131 -24,31 -67,75 -130,132 -62,57 -101,95 -118,114 -17,18 -30,37 -40,54l391 0z"/>
  <path id="1" fill="black" fill-rule="nonzero" d="M2222 2292l202 -20c12,67 36,117 74,149 37,32 87,47 150,47 66,0 116,-14 150,-42 34,-28 51,-61 51,-99 0,-24 -7,-45 -22,-62 -14,-17 -39,-32 -74,-45 -24,-8 -79,-23 -165,-45 -111,-27 -189,-61 -233,-102 -63,-56 -95,-125 -95,-207 0,-52 15,-102 45,-147 29,-46 72,-81 128,-105 55,-24 122,-36 201,-36 129,0 226,29 290,86 65,57 99,133 103,229l-208 7c-9,-53 -28,-91 -57,-114 -29,-24 -73,-35 -130,-35 -60,0 -107,12 -141,37 -22,16 -33,37 -33,64 0,24 11,45 31,62 26,23 90,46 190,70 101,23 176,48 224,74 48,25 86,60 113,104 27,44 41,99 41,164 0,59 -16,114 -49,165 -33,52 -79,90 -139,115 -60,25 -134,37 -224,37 -129,0 -229,-29 -299,-90 -69,-59 -111,-147 -124,-261z"/>
  <polygon id="2" fill="black" fill-rule="nonzero" points="3465,2625 3465,1771 3160,1771 3160,1597 3975,1597 3975,1771 3673,1771 3673,2625 "/>
  <polygon id="3" fill="black" fill-rule="nonzero" points="4110,2625 4110,1597 4871,1597 4871,1771 4318,1771 4318,1999 4832,1999 4832,2173 4318,2173 4318,2451 4891,2451 4891,2625 "/>
  <path id="4" fill="black" fill-rule="nonzero" d="M5068 2625l0 -1028 332 0c126,0 208,5 247,15 59,16 108,49 148,101 39,52 59,118 59,200 0,63 -11,116 -34,159 -23,43 -52,77 -87,102 -35,24 -71,40 -108,48 -49,10 -121,15 -214,15l-135 0 0 388 -208 0zm208 -854l0 293 113 0c81,0 136,-6 163,-17 28,-10 49,-27 65,-50 15,-23 23,-50 23,-81 0,-37 -11,-68 -33,-92 -22,-25 -49,-40 -83,-46 -24,-5 -74,-7 -149,-7l-99 0z"/>
  <polygon id="5" fill="black" fill-rule="nonzero" points="5837,2625 5837,2428 6034,2428 6034,2625 "/>
  <polygon id="6" fill="black" fill-rule="nonzero" points="6638,2625 6638,1597 6846,1597 6846,2002 7250,2002 7250,1597 7459,1597 7459,2625 7250,2625 7250,2175 6846,2175 6846,2625 "/>
  <path id="7" fill="black" fill-rule="nonzero" d="M7631 2117c0,-105 16,-193 47,-264 23,-52 55,-99 96,-141 40,-42 85,-73 133,-93 64,-27 138,-41 221,-41 152,0 273,48 364,142 91,94 137,225 137,392 0,167 -46,297 -136,391 -90,94 -211,140 -362,140 -153,0 -274,-46 -365,-140 -90,-93 -135,-222 -135,-386zm214 -7c0,117 27,205 81,265 54,60 122,90 205,90 83,0 151,-29 204,-89 53,-60 80,-149 80,-269 0,-118 -26,-206 -78,-264 -52,-58 -120,-87 -206,-87 -86,0 -155,30 -207,88 -53,59 -79,148 -79,266z"/>
  <polygon id="8" fill="black" fill-rule="nonzero" points="8796,2625 8796,1606 9004,1606 9004,2451 9520,2451 9520,2625 "/>
  <path id="9" fill="black" fill-rule="nonzero" d="M9667 1597l379 0c85,0 150,7 195,20 60,17 112,49 154,94 44,46 76,101 99,167 22,65 33,147 33,243 0,84 -10,157 -32,218 -25,75 -62,136 -109,182 -36,35 -85,62 -146,82 -45,15 -106,22 -183,22l-390 0 0 -1028zm208 174l0 680 155 0c57,0 99,-3 125,-10 33,-8 61,-22 83,-43 22,-20 40,-53 54,-99 14,-46 21,-108 21,-188 0,-79 -7,-140 -21,-183 -14,-42 -33,-75 -58,-99 -26,-24 -57,-40 -96,-48 -29,-7 -86,-10 -170,-10l-93 0z"/>
  <path id="10" fill="black" fill-rule="nonzero" d="M11103 1597l378 0c85,0 151,7 195,20 60,17 112,49 155,94 43,46 75,101 98,167 22,65 33,147 33,243 0,84 -10,157 -31,218 -26,75 -62,136 -110,182 -36,35 -84,62 -145,82 -46,15 -107,22 -184,22l-389 0 0 -1028zm208 174l0 680 154 0c58,0 99,-3 125,-10 34,-8 61,-22 83,-43 23,-20 41,-53 54,-99 15,-46 22,-108 22,-188 0,-79 -7,-140 -22,-183 -13,-42 -33,-75 -58,-99 -25,-24 -57,-40 -96,-48 -29,-7 -85,-10 -169,-10l-93 0z"/>
  <path id="11" fill="black" fill-rule="nonzero" d="M12096 2117c0,-105 16,-193 47,-264 23,-52 56,-99 96,-141 40,-42 85,-73 133,-93 64,-27 138,-41 221,-41 152,0 273,48 364,142 91,94 137,225 137,392 0,167 -46,297 -136,391 -90,94 -211,140 -362,140 -153,0 -274,-46 -364,-140 -91,-93 -136,-222 -136,-386zm214 -7c0,117 27,205 81,265 54,60 122,90 205,90 83,0 151,-29 204,-89 53,-60 80,-149 80,-269 0,-118 -26,-206 -78,-264 -52,-58 -120,-87 -206,-87 -86,0 -155,30 -207,88 -53,59 -79,148 -79,266z"/>
  <polygon id="12" fill="black" fill-rule="nonzero" points="13397,2625 13155,1597 13369,1597 13522,2303 13709,1597 13957,1597 14136,2315 14293,1597 14501,1597 14254,2625 14032,2625 13829,1856 13625,2625 "/>
  <polygon id="13" fill="black" fill-rule="nonzero" points="14610,2625 14610,1597 14812,1597 15235,2286 15235,1597 15427,1597 15427,2625 15219,2625 14803,1949 14803,2625 "/>
  <polygon id="14" fill="black" fill-rule="nonzero" points="16051,2625 16051,1606 16260,1606 16260,2451 16775,2451 16775,2625 "/>
  <polygon id="15" fill="black" fill-rule="nonzero" points="16922,2625 16922,1597 17683,1597 17683,1771 17131,1771 17131,1999 17644,1999 17644,2173 17131,2173 17131,2451 17703,2451 17703,2625 "/>
  <polygon id="16" fill="black" fill-rule="nonzero" points="17880,2625 17880,1597 18586,1597 18586,1771 18088,1771 18088,2015 18518,2015 18518,2188 18088,2188 18088,2625 "/>
  <polygon id="17" fill="black" fill-rule="nonzero" points="18988,2625 18988,1771 18683,1771 18683,1597 19499,1597 19499,1771 19196,1771 19196,2625 "/>
  <polygon id="18" fill="black" fill-rule="nonzero" points="20263,2625 20263,1771 19959,1771 19959,1597 20774,1597 20774,1771 20471,1771 20471,2625 "/>
  <path id="19" fill="black" fill-rule="nonzero" d="M20909 2625l0 -1028 437 0c110,0 190,9 239,28 50,18 90,51 120,98 30,47 45,101 45,162 0,77 -23,141 -68,191 -45,50 -112,82 -202,95 44,26 81,55 110,86 29,32 69,87 118,167l125 201 -248 0 -149 -225c-53,-79 -90,-130 -110,-150 -19,-21 -40,-35 -62,-43 -22,-8 -57,-11 -105,-11l-42 0 0 429 -208 0zm208 -593l154 0c99,0 161,-4 186,-13 25,-8 44,-23 58,-43 14,-21 21,-47 21,-78 0,-34 -9,-62 -28,-83 -18,-22 -44,-35 -78,-41 -17,-2 -67,-3 -151,-3l-162 0 0 261z"/>
  <polygon id="20" fill="black" fill-rule="nonzero" points="21938,2625 21938,1597 22146,1597 22146,2625 "/>
  <path id="21" fill="black" fill-rule="nonzero" d="M22822 2247l0 -173 446 0 0 410c-43,42 -106,79 -188,111 -83,32 -166,48 -251,48 -107,0 -201,-22 -281,-67 -79,-46 -139,-110 -179,-194 -41,-84 -61,-176 -61,-275 0,-107 23,-202 67,-286 45,-83 111,-147 197,-191 66,-35 148,-52 246,-52 128,0 228,27 299,81 72,54 118,128 139,222l-207 39c-14,-50 -42,-90 -82,-120 -39,-29 -89,-44 -149,-44 -90,0 -162,29 -216,87 -53,57 -80,143 -80,256 0,122 27,214 81,275 55,61 125,91 213,91 43,0 87,-8 130,-25 44,-17 82,-38 113,-62l0 -131 -237 0z"/>
  <path id="22" fill="black" fill-rule="nonzero" d="M23939 2247l0 -173 446 0 0 410c-43,42 -106,79 -189,111 -82,32 -166,48 -250,48 -108,0 -201,-22 -281,-67 -80,-46 -140,-110 -180,-194 -40,-84 -60,-176 -60,-275 0,-107 22,-202 67,-286 45,-83 110,-147 197,-191 66,-35 148,-52 246,-52 127,0 227,27 299,81 71,54 117,128 138,222l-207 39c-14,-50 -41,-90 -81,-120 -40,-29 -90,-44 -150,-44 -90,0 -162,29 -215,87 -54,57 -80,143 -80,256 0,122 27,214 81,275 54,61 125,91 213,91 43,0 86,-8 130,-25 44,-17 81,-38 112,-62l0 -131 -236 0z"/>
  <polygon id="23" fill="black" fill-rule="nonzero" points="24577,2625 24577,1597 25338,1597 25338,1771 24785,1771 24785,1999 25299,1999 25299,2173 24785,2173 24785,2451 25358,2451 25358,2625 "/>
  <path id="24" fill="black" fill-rule="nonzero" d="M25534 2625l0 -1028 437 0c110,0 190,9 240,28 50,18 90,51 120,98 29,47 44,101 44,162 0,77 -22,141 -67,191 -45,50 -113,82 -203,95 45,26 82,55 111,86 29,32 68,87 117,167l126 201 -248 0 -149 -225c-53,-79 -90,-130 -110,-150 -20,-21 -40,-35 -62,-43 -23,-8 -58,-11 -105,-11l-42 0 0 429 -209 0zm209 -593l153 0c100,0 162,-4 186,-13 25,-8 45,-23 59,-43 14,-21 21,-47 21,-78 0,-34 -10,-62 -28,-83 -19,-22 -45,-35 -78,-41 -17,-2 -68,-3 -152,-3l-161 0 0 261z"/>
  <polygon id="25" fill="black" fill-rule="nonzero" points="26970,2625 26970,1597 27676,1597 27676,1771 27178,1771 27178,2015 27608,2015 27608,2188 27178,2188 27178,2625 "/>
  <path id="26" fill="black" fill-rule="nonzero" d="M27803 2117c0,-105 16,-193 48,-264 23,-52 55,-99 95,-141 41,-42 85,-73 133,-93 64,-27 138,-41 222,-41 151,0 272,48 364,142 91,94 136,225 136,392 0,167 -45,297 -135,391 -91,94 -211,140 -362,140 -153,0 -275,-46 -365,-140 -90,-93 -136,-222 -136,-386zm214 -7c0,117 27,205 81,265 54,60 122,90 205,90 83,0 151,-29 204,-89 54,-60 80,-149 80,-269 0,-118 -26,-206 -78,-264 -51,-58 -120,-87 -206,-87 -85,0 -155,30 -207,88 -52,59 -79,148 -79,266z"/>
  <path id="27" fill="black" fill-rule="nonzero" d="M28963 2625l0 -1028 437 0c110,0 190,9 239,28 50,18 90,51 120,98 30,47 45,101 45,162 0,77 -22,141 -68,191 -45,50 -112,82 -202,95 44,26 81,55 110,86 29,32 69,87 118,167l125 201 -248 0 -149 -225c-53,-79 -90,-130 -109,-150 -20,-21 -41,-35 -63,-43 -22,-8 -57,-11 -105,-11l-42 0 0 429 -208 0zm208 -593l154 0c99,0 161,-4 186,-13 25,-8 44,-23 58,-43 14,-21 21,-47 21,-78 0,-34 -9,-62 -28,-83 -18,-22 -44,-35 -78,-41 -17,-2 -67,-3 -151,-3l-162 0 0 261z"/>
  <path id="28" fill="black" fill-rule="nonzero" d="M30348 2352l191 -23c6,49 22,86 49,112 26,26 58,39 96,39 40,0 74,-16 102,-47 28,-30 41,-72 41,-125 0,-49 -13,-89 -39,-118 -27,-29 -59,-43 -97,-43 -26,0 -55,5 -90,15l21 -160c54,1 94,-10 122,-35 28,-25 42,-57 42,-98 0,-35 -10,-62 -31,-83 -21,-21 -48,-31 -82,-31 -34,0 -63,12 -86,35 -24,24 -39,58 -44,103l-181 -31c13,-63 32,-113 58,-150 25,-38 61,-67 106,-89 45,-21 97,-32 153,-32 97,0 174,31 233,93 48,51 72,108 72,172 0,91 -49,163 -148,217 59,13 106,41 141,85 35,44 53,97 53,159 0,90 -33,167 -99,231 -66,64 -148,95 -246,95 -93,0 -170,-26 -231,-80 -61,-54 -96,-124 -106,-211z"/>
  <path id="29" fill="black" fill-rule="nonzero" d="M31541 2292l202 -20c12,67 37,117 74,149 37,32 87,47 150,47 66,0 117,-14 150,-42 34,-28 51,-61 51,-99 0,-24 -7,-45 -21,-62 -14,-17 -39,-32 -75,-45 -24,-8 -79,-23 -165,-45 -111,-27 -188,-61 -233,-102 -63,-56 -94,-125 -94,-207 0,-52 14,-102 44,-147 29,-46 72,-81 128,-105 55,-24 122,-36 201,-36 129,0 226,29 291,86 65,57 99,133 102,229l-208 7c-9,-53 -28,-91 -57,-114 -29,-24 -72,-35 -130,-35 -60,0 -107,12 -141,37 -21,16 -32,37 -32,64 0,24 10,45 30,62 27,23 90,46 191,70 100,23 175,48 223,74 48,25 86,60 113,104 27,44 41,99 41,164 0,59 -16,114 -49,165 -33,52 -79,90 -139,115 -59,25 -134,37 -223,37 -130,0 -230,-29 -300,-90 -69,-59 -111,-147 -124,-261z"/>
  <polygon id="30" fill="black" fill-rule="nonzero" points="32553,2625 32553,1597 33313,1597 33313,1771 32761,1771 32761,1999 33275,1999 33275,2173 32761,2173 32761,2451 33333,2451 33333,2625 "/>
  <path id="31" fill="black" fill-rule="nonzero" d="M34167 2246l201 62c-30,113 -82,197 -154,252 -71,54 -162,82 -273,82 -136,0 -248,-47 -336,-140 -88,-93 -132,-221 -132,-383 0,-171 44,-304 132,-399 89,-94 205,-142 349,-142 126,0 228,38 306,112 47,44 82,107 105,190l-205 49c-12,-53 -37,-96 -76,-126 -39,-31 -85,-47 -140,-47 -77,0 -139,28 -186,82 -48,55 -71,143 -71,266 0,130 23,222 70,277 47,55 107,83 182,83 55,0 103,-17 143,-53 39,-35 68,-90 85,-165z"/>
 </g>
</svg>
